<?xml version="1.0" encoding="utf-8"?>
<!-- Generator: Adobe Illustrator 22.0.1, SVG Export Plug-In . SVG Version: 6.00 Build 0)  -->
<svg version="1.1" xmlns="http://www.w3.org/2000/svg" xmlns:xlink="http://www.w3.org/1999/xlink" x="0px" y="0px"
	 viewBox="0 0 320 637.3" style="enable-background:new 0 0 320 637.3;" xml:space="preserve">
<style type="text/css">
	.st0{fill:#FAFAFA;}
	.st1{fill:url(#XMLID_2_);}
	.st2{fill:#CCCCCC;}
	.st3{fill:none;}
	.st4{fill:url(#XMLID_3_);}
	.st5{fill:#333333;}
</style>
<g id="圖層_2">
	<polygon class="st0" points="168,617.2 22.9,617.2 22.9,16.7 168,16.7 168,0.1 0,0.1 0,637.2 168,637.2 	"/>
</g>
<g id="Layer_1">
	<g id="XMLID_424_">
		
			<linearGradient id="XMLID_2_" gradientUnits="userSpaceOnUse" x1="-64.0722" y1="-556.4055" x2="384.0722" y2="-108.2612" gradientTransform="matrix(1 0 0 1 0 651)">
			<stop  offset="0" style="stop-color:#CCCCCC"/>
			<stop  offset="1" style="stop-color:#808080"/>
		</linearGradient>
		<path id="XMLID_428_" class="st1" d="M316.6,46.3c0-25.6-20.7-46.2-46.2-46.2H49.6C24,0.1,3.4,20.8,3.4,46.3V591
			c0,25.6,20.7,46.2,46.2,46.2h220.8c25.6,0,46.2-20.7,46.2-46.2L316.6,46.3L316.6,46.3z M309.5,590.6c0,21.9-17.8,39.6-39.6,39.6
			H49.2c-21.9,0-39.6-17.8-39.6-39.6V45.9C9.6,24,27.4,6.3,49.2,6.3H270c21.9,0,39.6,17.8,39.6,39.6V590.6L309.5,590.6z"/>
		<polyline id="XMLID_271_" class="st2" points="3.4,83.8 0,83.8 0,108 3.4,108 		"/>
		<polyline id="XMLID_270_" class="st2" points="316.6,218.8 320,218.8 320,144.6 316.6,144.6 		"/>
		<g id="XMLID_267_">
			<polyline id="XMLID_269_" class="st2" points="3.4,130.3 0,130.3 0,175.4 3.4,175.4 			"/>
			<polyline id="XMLID_268_" class="st2" points="3.4,188.1 0,188.1 0,233.3 3.4,233.3 			"/>
		</g>
		<path id="XMLID_425_" class="st3" d="M271.3,17H246c-5.4,0-7.4-0.1-7.7,6.8c-0.4,7.1-5.2,11.1-11.8,13.2c-2.2,0.7-4.7,0.5-7.1,0.5
			h-4.8H107.4h-4.8c-2.4,0-4.9,0.3-7.1-0.4c-6.6-2-11.6-6.2-11.8-13.3c-0.4-6.8-2.3-6.7-7.7-6.7H50.4c-15.6,0-27.5,12.4-27.5,27.9
			v544.3c0,15.6,11.9,27.6,27.4,27.6h221c15.6,0,28.4-12.3,28.4-27.6V44.9C299.7,29.3,286.8,17,271.3,17z"/>
		
			<linearGradient id="XMLID_3_" gradientUnits="userSpaceOnUse" x1="-59.7833" y1="-552.1167" x2="378.8944" y2="-113.4389" gradientTransform="matrix(1 0 0 1 0 651)">
			<stop  offset="0" style="stop-color:#666666"/>
			<stop  offset="1" style="stop-color:#000000"/>
		</linearGradient>
		<path id="XMLID_437_" class="st4" d="M309.5,45.9c0-21.9-17.8-39.6-39.6-39.6H49.2C27.3,6.3,9.6,24.1,9.6,45.9v544.7
			c0,21.9,17.8,39.6,39.6,39.6H270c21.9,0,39.6-17.8,39.6-39.6V45.9L309.5,45.9z M196.5,21.5c0,2.1-1.8,3.9-3.9,3.9
			c-2.1,0-3.9-1.8-3.9-3.9s1.8-3.9,3.9-3.9C194.8,17.7,196.5,19.4,196.5,21.5z M143.7,19.6h34.6c1.5,0,2.7,0.9,2.7,2.2
			s-1.2,2.2-2.7,2.2h-34.6c-1.5,0-2.7-0.9-2.7-2.2C141.1,20.5,142.3,19.6,143.7,19.6z M299.7,589.2c0,15.6-13,27.6-28.4,27.6h-221
			c-15.6,0-27.4-12.3-27.4-27.6V44.9C22.9,29.3,34.8,17,50.3,17h25.6c5.4,0,7.4-0.1,7.7,6.8c0.4,7.1,5.2,11.1,11.8,13.2
			c2.2,0.7,4.7,0.5,7.1,0.5h4.8h107.1h4.8c2.4,0,4.9,0.3,7.1-0.4c6.6-2,11.6-6.2,11.8-13.3c0.4-6.8,2.3-6.7,7.7-6.7h25.2
			c15.6,0,28.4,12.4,28.4,27.9v544.3H299.7z"/>
		<circle id="XMLID_429_" class="st5" cx="192.6" cy="21.5" r="3.9"/>
		<path id="XMLID_430_" class="st5" d="M143.7,24.1h34.6c1.5,0,2.7-0.9,2.7-2.2s-1.2-2.2-2.7-2.2h-34.6c-1.5,0-2.7,0.9-2.7,2.2
			C141.1,23.2,142.3,24.1,143.7,24.1z"/>
	</g>
</g>
</svg>
